<?xml version="1.0" encoding="UTF-8"?>
<svg xmlns="http://www.w3.org/2000/svg" width="46.96mm" height="57.36mm" viewBox="116.22 69.32 46.96 57.36">
  <path d="M 121.218 84.655 L 121.218 84.606 L 121.227 84.558 L 121.244 84.512 L 121.268 84.470 L 121.299 84.432 L 121.337 84.401 L 121.379 84.377 L 121.425 84.360 L 126.931 82.885 L 126.985 82.876 L 127.040 82.877 L 127.093 82.890 L 127.143 82.913 L 127.188 82.945 L 127.225 82.985 L 127.254 83.031 L 127.273 83.083 L 128.852 88.975 L 128.861 89.023 L 128.861 89.072 L 128.852 89.120 L 128.836 89.166 L 128.811 89.208 L 128.780 89.245 L 128.742 89.277 L 128.700 89.301 L 128.654 89.318 L 123.149 90.793 L 123.094 90.802 L 123.040 90.800 L 122.986 90.788 L 122.936 90.765 L 122.891 90.733 L 122.854 90.693 L 122.825 90.646 L 122.806 90.595 L 121.227 84.703 L 121.218 84.655 L 121.298 84.643 L 121.299 84.604 L 121.308 84.566 L 121.324 84.530 L 121.347 84.498 L 121.376 84.472 L 121.409 84.451 L 121.445 84.437 L 126.951 82.962 L 126.986 82.956 L 127.020 82.956 L 127.055 82.962 L 127.088 82.974 L 127.118 82.991 L 127.144 83.014 L 127.167 83.040 L 127.184 83.071 L 127.196 83.103 L 128.775 88.995 L 128.781 89.034 L 128.780 89.073 L 128.771 89.111 L 128.755 89.147 L 128.732 89.179 L 128.704 89.206 L 128.670 89.227 L 128.634 89.240 L 123.128 90.716 L 123.093 90.722 L 123.059 90.722 L 123.024 90.716 L 122.992 90.704 L 122.961 90.686 L 122.935 90.664 L 122.912 90.637 L 122.895 90.607 L 122.883 90.574 L 121.304 84.682 L 121.298 84.643 L 121.378 84.638 L 121.384 84.592 L 121.393 84.570 L 121.424 84.535 L 121.466 84.514 L 126.972 83.039 L 127.019 83.036 L 127.063 83.051 L 127.098 83.082 L 127.119 83.124 L 128.698 89.016 L 128.701 89.063 L 128.686 89.107 L 128.655 89.142 L 128.613 89.163 L 123.107 90.638 L 123.087 90.642 L 123.045 90.638 L 123.007 90.621 L 122.978 90.591 L 122.960 90.554 L 121.378 84.638" fill="none" stroke="#000000" stroke-width="0.2"/>
  <path d="M 139.035 102.230 L 139.058 102.467 L 139.071 102.524 L 139.146 102.751 L 139.279 102.982 L 139.459 103.181 L 139.650 103.323 L 139.701 103.352 L 139.892 103.437 L 139.972 103.460 L 140.658 103.460 L 140.738 103.437 L 140.955 103.338 L 141.171 103.181 L 141.351 102.982 L 141.394 102.910 L 141.388 102.900 L 141.394 102.910 L 146.104 102.910 L 146.106 102.906 L 146.104 102.910 L 146.123 102.930 L 146.166 102.970 L 146.360 103.108 L 146.604 103.217 L 146.866 103.273 L 147.134 103.273 L 147.396 103.217 L 147.640 103.108 L 147.834 102.970 L 147.877 102.930 L 148.036 102.752 L 148.079 102.680 L 148.073 102.670 L 148.079 102.680 L 152.921 102.680 L 152.927 102.670 L 152.921 102.680 L 152.964 102.752 L 153.123 102.930 L 153.166 102.970 L 153.360 103.108 L 153.577 103.207 L 153.633 103.225 L 153.866 103.273 L 154.105 103.274 L 154.163 103.268 L 154.367 103.225 L 154.423 103.207 L 154.640 103.108 L 154.834 102.970 L 154.877 102.930 L 155.036 102.752 L 155.169 102.521 L 155.252 102.266 L 155.280 102.000 L 155.252 101.734 L 155.169 101.479 L 155.036 101.248 L 154.877 101.070 L 154.834 101.030 L 154.665 100.907 L 154.614 100.878 L 154.396 100.783 L 154.134 100.727 L 153.895 100.725 L 153.837 100.732 L 153.604 100.783 L 153.386 100.878 L 153.335 100.907 L 153.144 101.049 L 152.964 101.248 L 152.921 101.320 L 152.927 101.330 L 152.921 101.320 L 148.079 101.320 L 148.073 101.330 L 148.079 101.320 L 148.036 101.248 L 147.877 101.070 L 147.834 101.030 L 147.640 100.891 L 147.423 100.793 L 147.367 100.775 L 147.134 100.727 L 146.895 100.725 L 146.837 100.732 L 146.633 100.775 L 146.577 100.793 L 146.360 100.891 L 146.166 101.030 L 146.123 101.070 L 145.964 101.248 L 145.831 101.479 L 145.806 101.550 L 145.816 101.564 L 145.806 101.550 L 141.394 101.550 L 141.388 101.560 L 141.394 101.550 L 141.351 101.478 L 141.171 101.279 L 140.955 101.122 L 140.738 101.023 L 140.658 101.000 L 139.972 101.000 L 139.892 101.023 L 139.701 101.108 L 139.650 101.137 L 139.459 101.279 L 139.279 101.478 L 139.146 101.709 L 139.071 101.936 L 139.058 101.993 L 139.035 102.230 L 139.115 102.230 L 139.141 102.479 L 139.219 102.718 L 139.344 102.935 L 139.497 103.107 L 139.528 103.135 L 139.715 103.269 L 139.925 103.364 L 139.964 103.377 L 140.169 103.420 L 140.210 103.424 L 140.440 103.423 L 140.666 103.377 L 140.705 103.364 L 140.915 103.269 L 141.102 103.135 L 141.133 103.107 L 141.286 102.935 L 141.347 102.830 L 141.341 102.819 L 141.347 102.830 L 146.140 102.830 L 146.143 102.824 L 146.140 102.830 L 146.197 102.892 L 146.382 103.028 L 146.419 103.049 L 146.629 103.141 L 146.875 103.193 L 147.125 103.193 L 147.371 103.141 L 147.581 103.049 L 147.618 103.028 L 147.787 102.905 L 147.818 102.877 L 147.971 102.705 L 148.032 102.600 L 148.026 102.589 L 148.032 102.600 L 152.968 102.600 L 152.974 102.589 L 152.968 102.600 L 153.029 102.705 L 153.182 102.877 L 153.213 102.905 L 153.400 103.039 L 153.629 103.141 L 153.854 103.190 L 153.895 103.194 L 154.125 103.193 L 154.371 103.141 L 154.581 103.049 L 154.618 103.028 L 154.803 102.892 L 154.971 102.705 L 155.087 102.507 L 155.104 102.469 L 155.174 102.249 L 155.200 102.000 L 155.174 101.751 L 155.096 101.512 L 154.971 101.295 L 154.803 101.108 L 154.600 100.961 L 154.371 100.859 L 154.146 100.810 L 154.105 100.805 L 153.875 100.807 L 153.649 100.853 L 153.610 100.866 L 153.400 100.961 L 153.213 101.095 L 153.182 101.123 L 153.029 101.295 L 152.968 101.400 L 152.974 101.411 L 152.968 101.400 L 148.032 101.400 L 148.026 101.411 L 148.032 101.400 L 147.971 101.295 L 147.818 101.123 L 147.787 101.095 L 147.600 100.961 L 147.390 100.866 L 147.351 100.853 L 147.125 100.807 L 146.875 100.807 L 146.629 100.859 L 146.419 100.951 L 146.382 100.972 L 146.197 101.108 L 146.042 101.278 L 146.018 101.312 L 145.904 101.512 L 145.864 101.630 L 145.875 101.645 L 145.864 101.630 L 141.347 101.630 L 141.341 101.641 L 141.347 101.630 L 141.286 101.525 L 141.133 101.353 L 141.102 101.325 L 140.915 101.191 L 140.705 101.096 L 140.666 101.083 L 140.440 101.037 L 140.190 101.037 L 139.944 101.089 L 139.715 101.191 L 139.512 101.338 L 139.357 101.508 L 139.333 101.542 L 139.228 101.723 L 139.211 101.761 L 139.141 101.980 L 139.115 102.230 L 139.195 102.230 L 139.219 102.463 L 139.292 102.686 L 139.409 102.888 L 139.557 103.053 L 139.575 103.070 L 139.766 103.206 L 139.969 103.295 L 140.198 103.344 L 140.432 103.344 L 140.649 103.298 L 140.875 103.200 L 141.073 103.053 L 141.221 102.888 L 141.301 102.750 L 146.176 102.750 L 146.251 102.832 L 146.429 102.963 L 146.642 103.061 L 146.883 103.114 L 147.117 103.114 L 147.346 103.065 L 147.571 102.963 L 147.758 102.823 L 147.906 102.658 L 147.986 102.520 L 153.014 102.520 L 153.094 102.658 L 153.242 102.823 L 153.440 102.970 L 153.654 103.065 L 153.871 103.112 L 154.117 103.114 L 154.346 103.065 L 154.560 102.970 L 154.749 102.832 L 154.898 102.668 L 154.913 102.648 L 155.028 102.444 L 155.096 102.233 L 155.120 102.000 L 155.096 101.767 L 155.028 101.556 L 154.913 101.352 L 154.898 101.332 L 154.749 101.168 L 154.560 101.030 L 154.346 100.935 L 154.117 100.886 L 153.883 100.886 L 153.666 100.932 L 153.440 101.030 L 153.242 101.177 L 153.094 101.342 L 153.014 101.480 L 147.986 101.480 L 147.906 101.342 L 147.758 101.177 L 147.560 101.030 L 147.334 100.932 L 147.117 100.886 L 146.883 100.886 L 146.642 100.939 L 146.440 101.030 L 146.251 101.168 L 146.087 101.352 L 145.977 101.544 L 145.922 101.710 L 141.301 101.710 L 141.221 101.572 L 141.073 101.407 L 140.875 101.260 L 140.649 101.162 L 140.432 101.116 L 140.198 101.116 L 139.969 101.165 L 139.755 101.260 L 139.566 101.398 L 139.417 101.562 L 139.298 101.763 L 139.287 101.786 L 139.219 101.997 L 139.195 102.230" fill="none" stroke="#000000" stroke-width="0.2"/>
  <path d="M 131.575 102.230 L 131.599 101.997 L 131.672 101.774 L 131.789 101.572 L 131.946 101.398 L 132.135 101.260 L 132.349 101.165 L 132.578 101.116 L 132.812 101.116 L 133.041 101.165 L 133.266 101.267 L 133.453 101.407 L 133.601 101.572 L 133.681 101.710 L 136.230 101.710 L 136.343 101.723 L 136.429 101.750 L 136.509 101.792 L 136.598 101.862 L 136.876 102.141 L 136.925 102.202 L 136.975 102.290 L 137.010 102.399 L 137.020 102.500 L 137.020 103.980 L 137.500 103.980 L 137.613 103.993 L 137.699 104.020 L 137.798 104.075 L 137.868 104.132 L 137.985 104.250 L 139.329 104.250 L 139.409 104.112 L 139.557 103.947 L 139.755 103.800 L 139.981 103.702 L 140.198 103.656 L 140.420 103.655 L 140.661 103.705 L 140.886 103.807 L 141.073 103.947 L 141.221 104.112 L 141.301 104.250 L 147.270 104.250 L 147.371 104.260 L 147.458 104.286 L 147.549 104.332 L 147.629 104.394 L 147.876 104.641 L 147.938 104.721 L 147.975 104.790 L 148.010 104.899 L 148.020 105.000 L 148.020 108.511 L 148.071 108.537 L 148.258 108.677 L 148.406 108.842 L 148.486 108.980 L 153.083 108.980 L 153.102 108.952 L 153.251 108.788 L 153.451 108.644 L 153.654 108.555 L 153.871 108.508 L 153.895 108.505 L 154.129 108.508 L 154.358 108.559 L 154.560 108.650 L 154.740 108.780 L 154.906 108.962 L 155.023 109.164 L 155.097 109.400 L 155.120 109.620 L 155.097 109.840 L 155.023 110.076 L 154.898 110.288 L 154.749 110.452 L 154.571 110.583 L 154.358 110.681 L 154.117 110.734 L 153.895 110.734 L 153.871 110.732 L 153.642 110.681 L 153.440 110.590 L 153.260 110.460 L 153.094 110.278 L 152.983 110.087 L 152.958 110.020 L 148.486 110.020 L 148.406 110.158 L 148.249 110.332 L 148.060 110.470 L 147.858 110.561 L 147.629 110.612 L 147.605 110.615 L 147.383 110.614 L 147.154 110.565 L 146.940 110.470 L 146.760 110.340 L 146.594 110.158 L 146.477 109.956 L 146.408 109.745 L 146.380 109.500 L 146.408 109.255 L 146.477 109.044 L 146.587 108.852 L 146.751 108.668 L 146.929 108.537 L 146.980 108.512 L 146.980 105.290 L 141.301 105.290 L 141.221 105.428 L 141.064 105.602 L 140.875 105.740 L 140.673 105.831 L 140.444 105.882 L 140.420 105.885 L 140.198 105.884 L 139.981 105.838 L 139.755 105.740 L 139.566 105.602 L 139.409 105.428 L 139.329 105.290 L 137.770 105.290 L 137.680 105.282 L 137.571 105.250 L 137.491 105.208 L 137.402 105.138 L 137.285 105.020 L 136.488 105.019 L 136.399 105.010 L 136.312 104.984 L 136.202 104.925 L 136.132 104.868 L 136.062 104.779 L 136.020 104.699 L 135.988 104.590 L 135.980 104.500 L 135.980 102.750 L 133.681 102.750 L 133.601 102.888 L 133.453 103.053 L 133.255 103.200 L 133.041 103.295 L 132.824 103.342 L 132.800 103.344 L 132.566 103.342 L 132.349 103.295 L 132.135 103.200 L 131.946 103.062 L 131.789 102.888 L 131.672 102.686 L 131.603 102.475 L 131.575 102.230 L 131.495 102.230 L 131.518 102.001 L 131.527 101.960 L 131.591 101.761 L 131.608 101.723 L 131.724 101.525 L 131.892 101.338 L 132.077 101.202 L 132.114 101.181 L 132.324 101.089 L 132.570 101.037 L 132.820 101.037 L 133.046 101.083 L 133.085 101.096 L 133.295 101.191 L 133.482 101.325 L 133.513 101.353 L 133.666 101.525 L 133.727 101.630 L 133.721 101.641 L 133.727 101.630 L 136.230 101.630 L 136.347 101.642 L 136.441 101.669 L 136.477 101.684 L 136.546 101.721 L 136.579 101.743 L 136.640 101.793 L 136.924 102.076 L 136.987 102.151 L 137.009 102.183 L 137.054 102.270 L 137.084 102.364 L 137.091 102.402 L 137.100 102.500 L 137.100 103.900 L 137.077 103.923 L 137.100 103.900 L 137.500 103.900 L 137.598 103.909 L 137.636 103.916 L 137.730 103.946 L 137.816 103.991 L 137.849 104.013 L 137.924 104.076 L 138.018 104.170 L 138.017 104.175 L 138.018 104.170 L 139.283 104.170 L 139.289 104.181 L 139.283 104.170 L 139.344 104.065 L 139.497 103.893 L 139.528 103.865 L 139.715 103.731 L 139.925 103.636 L 139.964 103.623 L 140.190 103.577 L 140.420 103.575 L 140.461 103.580 L 140.686 103.629 L 140.896 103.721 L 140.933 103.742 L 141.102 103.865 L 141.133 103.893 L 141.286 104.065 L 141.347 104.170 L 141.341 104.181 L 141.347 104.170 L 147.270 104.170 L 147.387 104.182 L 147.481 104.209 L 147.517 104.224 L 147.586 104.261 L 147.619 104.283 L 147.680 104.333 L 147.937 104.590 L 147.987 104.651 L 148.009 104.683 L 148.046 104.753 L 148.061 104.789 L 148.088 104.883 L 148.100 105.000 L 148.100 108.461 L 148.091 108.465 L 148.100 108.461 L 148.118 108.472 L 148.287 108.595 L 148.318 108.623 L 148.471 108.795 L 148.532 108.900 L 148.526 108.911 L 148.532 108.900 L 153.041 108.900 L 153.044 108.907 L 153.042 108.898 L 153.182 108.743 L 153.213 108.715 L 153.400 108.581 L 153.629 108.479 L 153.854 108.430 L 153.895 108.425 L 154.125 108.427 L 154.351 108.473 L 154.390 108.486 L 154.600 108.581 L 154.803 108.728 L 154.971 108.915 L 155.087 109.113 L 155.104 109.151 L 155.168 109.350 L 155.177 109.391 L 155.200 109.620 L 155.177 109.849 L 155.168 109.890 L 155.096 110.108 L 154.982 110.308 L 154.958 110.342 L 154.803 110.512 L 154.618 110.648 L 154.581 110.669 L 154.390 110.754 L 154.351 110.767 L 154.125 110.813 L 153.895 110.814 L 153.854 110.810 L 153.649 110.767 L 153.610 110.754 L 153.400 110.659 L 153.213 110.525 L 153.182 110.497 L 153.029 110.325 L 152.913 110.127 L 152.901 110.100 L 152.907 110.089 L 152.901 110.100 L 148.532 110.100 L 148.526 110.089 L 148.532 110.100 L 148.471 110.205 L 148.303 110.392 L 148.100 110.539 L 147.890 110.634 L 147.851 110.647 L 147.646 110.690 L 147.605 110.695 L 147.375 110.693 L 147.129 110.641 L 146.919 110.549 L 146.882 110.528 L 146.697 110.392 L 146.529 110.205 L 146.404 109.988 L 146.332 109.770 L 146.323 109.729 L 146.300 109.500 L 146.323 109.271 L 146.332 109.230 L 146.404 109.012 L 146.518 108.812 L 146.542 108.778 L 146.697 108.608 L 146.882 108.472 L 146.900 108.461 L 146.908 108.465 L 146.900 108.461 L 146.900 105.370 L 146.923 105.347 L 146.900 105.370 L 141.347 105.370 L 141.341 105.359 L 141.347 105.370 L 141.286 105.475 L 141.118 105.662 L 140.915 105.809 L 140.705 105.904 L 140.666 105.917 L 140.461 105.960 L 140.420 105.964 L 140.190 105.963 L 139.964 105.917 L 139.925 105.904 L 139.715 105.809 L 139.512 105.662 L 139.344 105.475 L 139.283 105.370 L 139.289 105.359 L 139.283 105.370 L 137.770 105.370 L 137.672 105.361 L 137.634 105.354 L 137.540 105.324 L 137.453 105.279 L 137.421 105.257 L 137.346 105.194 L 137.251 105.100 L 137.253 105.095 L 137.251 105.100 L 136.480 105.099 L 136.383 105.088 L 136.289 105.061 L 136.253 105.046 L 136.183 105.009 L 136.151 104.987 L 136.076 104.924 L 136.013 104.849 L 135.991 104.816 L 135.946 104.730 L 135.916 104.636 L 135.909 104.598 L 135.900 104.500 L 135.900 102.830 L 135.923 102.807 L 135.900 102.830 L 133.727 102.830 L 133.721 102.819 L 133.727 102.830 L 133.666 102.935 L 133.513 103.107 L 133.482 103.135 L 133.295 103.269 L 133.066 103.371 L 132.841 103.420 L 132.800 103.424 L 132.590 103.424 L 132.549 103.420 L 132.324 103.371 L 132.095 103.269 L 131.892 103.122 L 131.724 102.935 L 131.599 102.718 L 131.527 102.500 L 131.518 102.459 L 131.495 102.230 L 131.415 102.230 L 131.438 101.993 L 131.451 101.936 L 131.515 101.737 L 131.539 101.683 L 131.659 101.478 L 131.839 101.279 L 132.055 101.122 L 132.216 101.048 L 132.329 101.027 L 132.536 101.006 L 132.798 101.003 L 133.061 101.027 L 133.174 101.048 L 133.309 101.108 L 133.360 101.137 L 133.551 101.279 L 133.731 101.478 L 133.774 101.550 L 133.768 101.560 L 133.774 101.550 L 136.230 101.550 L 136.363 101.563 L 136.464 101.593 L 136.515 101.613 L 136.584 101.650 L 136.630 101.681 L 136.711 101.749 L 136.999 102.040 L 137.049 102.100 L 137.079 102.146 L 137.116 102.215 L 137.137 102.266 L 137.167 102.367 L 137.180 102.500 L 137.180 103.820 L 137.157 103.843 L 137.180 103.820 L 137.500 103.820 L 137.605 103.829 L 137.659 103.840 L 137.760 103.872 L 137.854 103.920 L 137.900 103.951 L 137.960 104.001 L 138.052 104.090 L 138.050 104.095 L 138.052 104.090 L 139.236 104.090 L 139.242 104.100 L 139.236 104.090 L 139.279 104.018 L 139.459 103.819 L 139.675 103.662 L 139.892 103.563 L 139.972 103.540 L 140.658 103.540 L 140.738 103.563 L 140.955 103.662 L 141.149 103.800 L 141.192 103.840 L 141.351 104.018 L 141.394 104.090 L 141.388 104.100 L 141.394 104.090 L 147.270 104.090 L 147.403 104.103 L 147.504 104.133 L 147.555 104.154 L 147.624 104.191 L 147.670 104.221 L 147.730 104.271 L 147.999 104.540 L 148.049 104.600 L 148.079 104.646 L 148.116 104.715 L 148.137 104.766 L 148.167 104.867 L 148.180 105.000 L 148.180 108.419 L 148.172 108.423 L 148.180 108.419 L 148.334 108.530 L 148.377 108.570 L 148.536 108.748 L 148.579 108.820 L 148.573 108.830 L 148.579 108.820 L 153.005 108.820 L 153.008 108.827 L 153.005 108.820 L 153.123 108.689 L 153.166 108.650 L 153.360 108.511 L 153.577 108.413 L 153.633 108.395 L 153.866 108.347 L 154.105 108.346 L 154.163 108.352 L 154.396 108.403 L 154.614 108.498 L 154.665 108.527 L 154.834 108.650 L 154.877 108.689 L 155.036 108.868 L 155.156 109.073 L 155.180 109.127 L 155.252 109.354 L 155.280 109.620 L 155.252 109.886 L 155.180 110.113 L 155.156 110.167 L 155.036 110.372 L 154.877 110.550 L 154.834 110.590 L 154.640 110.728 L 154.423 110.827 L 154.367 110.845 L 154.134 110.893 L 153.866 110.893 L 153.633 110.845 L 153.577 110.827 L 153.360 110.728 L 153.144 110.571 L 152.983 110.395 L 152.949 110.348 L 152.852 110.180 L 152.858 110.169 L 152.852 110.180 L 148.579 110.180 L 148.573 110.170 L 148.579 110.180 L 148.536 110.252 L 148.377 110.430 L 148.334 110.470 L 148.140 110.608 L 147.896 110.717 L 147.663 110.768 L 147.605 110.774 L 147.366 110.773 L 147.104 110.717 L 146.886 110.622 L 146.835 110.593 L 146.644 110.451 L 146.464 110.252 L 146.331 110.021 L 146.256 109.794 L 146.243 109.737 L 146.220 109.500 L 146.248 109.234 L 146.320 109.007 L 146.344 108.953 L 146.464 108.748 L 146.623 108.570 L 146.666 108.530 L 146.820 108.419 L 146.829 108.423 L 146.820 108.419 L 146.820 105.450 L 146.843 105.427 L 146.820 105.450 L 141.394 105.450 L 141.388 105.440 L 141.394 105.450 L 141.351 105.522 L 141.171 105.721 L 140.955 105.878 L 140.738 105.977 L 140.658 106.000 L 139.972 106.000 L 139.892 105.977 L 139.675 105.878 L 139.481 105.740 L 139.438 105.700 L 139.279 105.522 L 139.236 105.450 L 139.242 105.440 L 139.236 105.450 L 137.770 105.450 L 137.664 105.441 L 137.611 105.430 L 137.510 105.398 L 137.416 105.349 L 137.370 105.319 L 137.310 105.269 L 137.218 105.180 L 137.220 105.175 L 137.218 105.180 L 136.500 105.180 L 136.394 105.171 L 136.341 105.160 L 136.240 105.128 L 136.146 105.079 L 136.100 105.049 L 136.019 104.981 L 135.951 104.900 L 135.920 104.854 L 135.872 104.760 L 135.840 104.659 L 135.829 104.605 L 135.820 104.500 L 135.820 102.910 L 135.843 102.887 L 135.820 102.910 L 133.774 102.910 L 133.768 102.900 L 133.774 102.910 L 133.731 102.982 L 133.551 103.181 L 133.335 103.338 L 133.118 103.437 L 133.038 103.460 L 132.352 103.460 L 132.272 103.437 L 132.081 103.352 L 132.030 103.323 L 131.839 103.181 L 131.659 102.982 L 131.526 102.751 L 131.451 102.524 L 131.438 102.467 L 131.415 102.230" fill="none" stroke="#000000" stroke-width="0.2"/>
  <path d="M 127.074 101.806 L 127.099 101.573 L 127.177 101.339 L 127.296 101.138 L 127.445 100.974 L 127.624 100.843 L 127.848 100.741 L 128.077 100.692 L 128.311 100.692 L 128.552 100.745 L 128.765 100.843 L 128.943 100.974 L 129.092 101.138 L 129.217 101.350 L 129.292 101.585 L 129.314 101.806 L 129.292 102.026 L 129.217 102.261 L 129.100 102.464 L 128.952 102.629 L 128.765 102.769 L 128.714 102.794 L 128.714 103.979 L 128.985 104.250 L 131.709 104.250 L 131.789 104.112 L 131.937 103.947 L 132.135 103.800 L 132.349 103.705 L 132.566 103.658 L 132.812 103.656 L 133.041 103.705 L 133.244 103.794 L 133.444 103.938 L 133.601 104.112 L 133.712 104.303 L 133.723 104.326 L 133.792 104.550 L 133.815 104.770 L 133.791 105.003 L 133.718 105.226 L 133.601 105.428 L 133.444 105.602 L 133.255 105.740 L 133.041 105.835 L 132.812 105.884 L 132.578 105.884 L 132.361 105.838 L 132.135 105.740 L 131.937 105.593 L 131.789 105.428 L 131.709 105.290 L 128.770 105.290 L 128.669 105.280 L 128.571 105.250 L 128.472 105.195 L 128.402 105.138 L 127.826 104.562 L 127.769 104.492 L 127.714 104.393 L 127.684 104.295 L 127.674 104.194 L 127.674 102.794 L 127.624 102.769 L 127.445 102.638 L 127.288 102.464 L 127.166 102.250 L 127.099 102.039 L 127.074 101.806 L 126.994 101.806 L 127.020 101.556 L 127.090 101.337 L 127.107 101.299 L 127.212 101.118 L 127.236 101.084 L 127.391 100.914 L 127.594 100.767 L 127.823 100.665 L 128.069 100.612 L 128.320 100.612 L 128.565 100.665 L 128.794 100.767 L 128.981 100.901 L 129.012 100.929 L 129.152 101.084 L 129.176 101.118 L 129.290 101.318 L 129.368 101.556 L 129.393 101.785 L 129.393 101.827 L 129.368 102.055 L 129.290 102.294 L 129.165 102.511 L 129.012 102.683 L 128.981 102.711 L 128.812 102.834 L 128.794 102.845 L 128.785 102.841 L 128.794 102.845 L 128.794 103.945 L 128.788 103.948 L 128.794 103.945 L 129.019 104.170 L 129.016 104.176 L 129.019 104.170 L 131.663 104.170 L 131.669 104.181 L 131.663 104.170 L 131.724 104.065 L 131.877 103.893 L 131.908 103.865 L 132.095 103.731 L 132.305 103.636 L 132.344 103.623 L 132.570 103.577 L 132.820 103.577 L 133.066 103.629 L 133.276 103.721 L 133.313 103.742 L 133.498 103.878 L 133.666 104.065 L 133.782 104.263 L 133.799 104.301 L 133.863 104.500 L 133.872 104.541 L 133.895 104.770 L 133.869 105.019 L 133.791 105.258 L 133.666 105.475 L 133.498 105.662 L 133.295 105.809 L 133.066 105.911 L 132.820 105.963 L 132.590 105.964 L 132.549 105.960 L 132.324 105.911 L 132.095 105.809 L 131.908 105.675 L 131.877 105.647 L 131.724 105.475 L 131.663 105.370 L 131.669 105.359 L 131.663 105.370 L 128.770 105.370 L 128.653 105.358 L 128.559 105.331 L 128.523 105.316 L 128.453 105.279 L 128.421 105.257 L 128.346 105.194 L 127.770 104.618 L 127.707 104.543 L 127.685 104.511 L 127.640 104.424 L 127.606 104.311 L 127.594 104.194 L 127.594 102.845 L 127.603 102.841 L 127.594 102.845 L 127.577 102.834 L 127.391 102.698 L 127.223 102.511 L 127.107 102.313 L 127.090 102.274 L 127.020 102.055 L 126.994 101.806 L 126.914 101.806 L 126.942 101.540 L 127.014 101.313 L 127.038 101.259 L 127.143 101.078 L 127.177 101.031 L 127.338 100.855 L 127.554 100.697 L 127.799 100.589 L 128.060 100.533 L 128.328 100.533 L 128.561 100.581 L 128.617 100.599 L 128.808 100.684 L 128.859 100.713 L 129.051 100.855 L 129.230 101.054 L 129.363 101.285 L 129.438 101.511 L 129.451 101.569 L 129.473 101.777 L 129.473 101.835 L 129.446 102.072 L 129.363 102.327 L 129.246 102.534 L 129.211 102.581 L 129.051 102.757 L 128.874 102.887 L 128.865 102.883 L 128.874 102.887 L 128.874 103.912 L 128.868 103.915 L 128.874 103.912 L 129.052 104.090 L 129.049 104.096 L 129.052 104.090 L 131.616 104.090 L 131.622 104.100 L 131.616 104.090 L 131.659 104.018 L 131.839 103.819 L 132.055 103.662 L 132.272 103.563 L 132.352 103.540 L 133.038 103.540 L 133.062 103.545 L 133.118 103.563 L 133.335 103.662 L 133.551 103.819 L 133.730 104.018 L 133.864 104.249 L 133.947 104.504 L 133.975 104.770 L 133.947 105.036 L 133.875 105.263 L 133.851 105.317 L 133.730 105.522 L 133.551 105.721 L 133.335 105.878 L 133.118 105.977 L 133.038 106.000 L 132.352 106.000 L 132.272 105.977 L 132.055 105.878 L 131.839 105.721 L 131.659 105.522 L 131.616 105.450 L 131.622 105.440 L 131.616 105.450 L 128.770 105.450 L 128.637 105.437 L 128.536 105.407 L 128.485 105.386 L 128.416 105.349 L 128.370 105.319 L 128.289 105.251 L 127.713 104.675 L 127.645 104.594 L 127.615 104.548 L 127.566 104.454 L 127.527 104.327 L 127.514 104.194 L 127.514 102.887 L 127.523 102.883 L 127.514 102.887 L 127.360 102.776 L 127.317 102.736 L 127.159 102.558 L 127.038 102.353 L 127.014 102.299 L 126.942 102.072 L 126.914 101.806" fill="none" stroke="#000000" stroke-width="0.2"/>
  <path d="M 122.481 102.535 L 122.481 102.465 L 122.495 102.376 L 122.525 102.290 L 122.568 102.211 L 122.632 102.132 L 127.632 97.132 L 127.702 97.074 L 127.772 97.033 L 127.830 97.009 L 127.909 96.988 L 128.000 96.980 L 129.000 96.980 L 129.072 96.985 L 129.152 97.003 L 129.244 97.041 L 129.313 97.085 L 129.368 97.132 L 131.405 99.170 L 131.575 99.170 L 131.575 99.002 L 131.588 98.900 L 131.612 98.827 L 131.651 98.759 L 131.709 98.690 L 131.728 98.673 L 131.791 98.628 L 131.886 98.588 L 131.962 98.572 L 132.175 98.571 L 132.175 90.782 L 131.431 90.240 L 130.170 88.841 L 130.155 88.821 L 129.220 87.200 L 129.210 87.177 L 128.628 85.386 L 128.431 83.513 L 128.431 83.487 L 128.626 81.627 L 128.631 81.602 L 129.214 79.811 L 130.155 78.179 L 130.170 78.159 L 131.431 76.760 L 132.965 75.645 L 134.697 74.874 L 136.552 74.480 L 138.448 74.480 L 140.303 74.874 L 142.035 75.645 L 143.559 76.752 L 143.578 76.769 L 144.838 78.169 L 145.780 79.800 L 145.790 79.823 L 146.369 81.602 L 146.374 81.627 L 146.570 83.500 L 146.372 85.386 L 145.786 87.189 L 144.838 88.831 L 143.569 90.240 L 142.046 91.348 L 142.024 91.361 L 140.315 92.122 L 140.291 92.129 L 138.448 92.520 L 136.552 92.520 L 134.697 92.126 L 133.215 91.467 L 133.215 98.570 L 133.382 98.570 L 133.440 98.574 L 133.516 98.591 L 133.599 98.628 L 133.672 98.681 L 133.732 98.748 L 133.778 98.827 L 133.806 98.913 L 133.815 99.002 L 133.815 100.377 L 133.806 100.467 L 133.782 100.542 L 133.739 100.621 L 133.724 100.641 L 133.672 100.699 L 133.599 100.752 L 133.516 100.789 L 133.421 100.808 L 132.001 100.810 L 131.950 100.806 L 131.886 100.792 L 131.802 100.758 L 131.781 100.745 L 131.709 100.690 L 131.658 100.632 L 131.612 100.553 L 131.582 100.455 L 131.575 100.377 L 131.575 100.210 L 131.190 100.210 L 131.118 100.205 L 131.020 100.181 L 130.946 100.149 L 130.877 100.105 L 130.822 100.058 L 128.785 98.020 L 128.215 98.020 L 123.735 102.500 L 130.868 109.632 L 130.921 109.696 L 130.969 109.777 L 131.007 109.886 L 131.019 109.979 L 131.014 110.073 L 130.999 110.144 L 130.965 110.232 L 130.902 110.329 L 130.853 110.382 L 130.778 110.439 L 130.694 110.482 L 130.592 110.512 L 130.514 110.517 L 129.058 111.974 L 129.397 112.313 L 129.423 112.352 L 129.432 112.398 L 129.423 112.444 L 129.397 112.483 L 129.058 112.822 L 130.715 114.480 L 133.000 114.480 L 133.101 114.490 L 133.199 114.520 L 133.298 114.575 L 133.368 114.632 L 133.667 114.931 L 133.883 114.886 L 134.105 114.885 L 134.346 114.935 L 134.560 115.030 L 134.740 115.160 L 134.758 115.177 L 134.913 115.352 L 135.023 115.544 L 135.096 115.767 L 135.120 116.000 L 135.096 116.233 L 135.023 116.456 L 134.906 116.658 L 134.749 116.832 L 134.571 116.963 L 134.520 116.988 L 134.520 120.480 L 146.980 120.480 L 146.980 115.488 L 146.929 115.463 L 146.751 115.332 L 146.587 115.148 L 146.477 114.956 L 146.408 114.745 L 146.381 114.513 L 146.381 114.487 L 146.404 114.267 L 146.477 114.044 L 146.594 113.842 L 146.751 113.668 L 146.940 113.530 L 147.154 113.435 L 147.383 113.386 L 147.617 113.386 L 147.846 113.435 L 148.060 113.530 L 148.249 113.668 L 148.398 113.832 L 148.413 113.852 L 148.528 114.056 L 148.596 114.267 L 148.620 114.500 L 148.592 114.745 L 148.523 114.956 L 148.413 115.148 L 148.249 115.332 L 148.071 115.463 L 148.020 115.488 L 148.020 121.000 L 148.010 121.101 L 147.984 121.188 L 147.925 121.298 L 147.868 121.368 L 147.798 121.425 L 147.710 121.475 L 147.601 121.510 L 147.500 121.520 L 134.000 121.520 L 133.899 121.510 L 133.812 121.484 L 133.702 121.425 L 133.632 121.368 L 133.562 121.279 L 133.516 121.188 L 133.490 121.101 L 133.481 121.012 L 133.480 116.988 L 133.429 116.963 L 133.242 116.823 L 133.094 116.658 L 132.977 116.456 L 132.904 116.233 L 132.881 116.013 L 132.904 115.767 L 132.935 115.671 L 132.785 115.520 L 130.500 115.520 L 130.399 115.510 L 130.290 115.475 L 130.202 115.425 L 130.132 115.368 L 128.322 113.558 L 127.965 113.912 L 127.921 113.930 L 127.898 113.932 L 127.875 113.930 L 127.831 113.912 L 126.399 112.483 L 126.373 112.444 L 126.364 112.398 L 126.366 112.375 L 126.373 112.352 L 126.399 112.313 L 127.831 110.884 L 127.875 110.866 L 127.898 110.864 L 127.921 110.866 L 127.965 110.884 L 128.322 111.238 L 129.663 109.898 L 122.632 102.868 L 122.568 102.789 L 122.525 102.710 L 122.495 102.624 L 122.481 102.535 L 122.402 102.535 L 122.405 102.570 L 122.426 102.672 L 122.464 102.769 L 122.519 102.858 L 122.576 102.924 L 129.549 109.898 L 129.583 109.898 L 129.549 109.898 L 128.322 111.125 L 128.322 111.158 L 128.322 111.125 L 128.039 110.842 L 128.009 110.818 L 127.975 110.799 L 127.937 110.788 L 127.898 110.784 L 127.859 110.788 L 127.821 110.799 L 127.787 110.818 L 127.757 110.842 L 126.342 112.257 L 126.318 112.287 L 126.299 112.321 L 126.288 112.359 L 126.284 112.398 L 126.288 112.437 L 126.299 112.475 L 126.318 112.509 L 126.342 112.539 L 127.757 113.954 L 127.787 113.979 L 127.821 113.997 L 127.859 114.008 L 127.898 114.012 L 127.937 114.008 L 127.975 113.997 L 128.009 113.979 L 128.039 113.954 L 128.322 113.671 L 128.322 113.638 L 128.322 113.671 L 130.076 115.424 L 130.151 115.487 L 130.183 115.509 L 130.253 115.546 L 130.289 115.561 L 130.383 115.588 L 130.500 115.600 L 132.751 115.600 L 132.754 115.594 L 132.751 115.600 L 132.844 115.692 L 132.856 115.689 L 132.844 115.692 L 132.826 115.750 L 132.801 115.979 L 132.801 116.021 L 132.826 116.249 L 132.904 116.488 L 133.029 116.705 L 133.182 116.877 L 133.213 116.905 L 133.382 117.028 L 133.400 117.039 L 133.409 117.035 L 133.400 117.039 L 133.401 121.020 L 133.412 121.117 L 133.439 121.211 L 133.454 121.247 L 133.491 121.316 L 133.513 121.349 L 133.576 121.424 L 133.651 121.487 L 133.683 121.509 L 133.753 121.546 L 133.789 121.561 L 133.883 121.588 L 134.000 121.600 L 147.500 121.600 L 147.617 121.588 L 147.711 121.561 L 147.747 121.546 L 147.816 121.509 L 147.849 121.487 L 147.924 121.424 L 147.987 121.349 L 148.009 121.316 L 148.046 121.247 L 148.061 121.211 L 148.088 121.117 L 148.100 121.000 L 148.100 115.539 L 148.091 115.535 L 148.100 115.539 L 148.118 115.528 L 148.303 115.392 L 148.458 115.222 L 148.482 115.188 L 148.596 114.988 L 148.668 114.770 L 148.677 114.729 L 148.700 114.500 L 148.674 114.251 L 148.604 114.031 L 148.587 113.993 L 148.482 113.812 L 148.458 113.778 L 148.303 113.608 L 148.100 113.461 L 147.871 113.359 L 147.625 113.307 L 147.375 113.307 L 147.129 113.359 L 146.900 113.461 L 146.697 113.608 L 146.529 113.795 L 146.404 114.012 L 146.326 114.251 L 146.301 114.479 L 146.301 114.521 L 146.326 114.749 L 146.396 114.969 L 146.413 115.007 L 146.529 115.205 L 146.682 115.377 L 146.713 115.405 L 146.882 115.528 L 146.900 115.539 L 146.909 115.535 L 146.900 115.539 L 146.900 120.400 L 146.923 120.423 L 146.900 120.400 L 134.600 120.400 L 134.577 120.423 L 134.600 120.400 L 134.600 117.039 L 134.591 117.035 L 134.600 117.039 L 134.618 117.028 L 134.803 116.892 L 134.958 116.722 L 134.982 116.688 L 135.096 116.488 L 135.168 116.270 L 135.177 116.229 L 135.199 116.021 L 135.199 115.979 L 135.177 115.771 L 135.168 115.730 L 135.096 115.512 L 134.982 115.312 L 134.958 115.278 L 134.803 115.108 L 134.618 114.972 L 134.581 114.951 L 134.371 114.859 L 134.125 114.807 L 133.875 114.807 L 133.693 114.844 L 133.690 114.854 L 133.693 114.844 L 133.424 114.576 L 133.349 114.513 L 133.316 114.491 L 133.230 114.446 L 133.117 114.412 L 133.000 114.400 L 130.749 114.400 L 130.746 114.406 L 130.749 114.400 L 129.171 112.822 L 129.138 112.822 L 129.171 112.822 L 129.454 112.539 L 129.479 112.509 L 129.497 112.475 L 129.508 112.437 L 129.512 112.398 L 129.508 112.359 L 129.497 112.321 L 129.479 112.287 L 129.454 112.257 L 129.171 111.974 L 129.138 111.974 L 129.171 111.974 L 130.549 110.595 L 130.548 110.592 L 130.549 110.595 L 130.605 110.591 L 130.696 110.567 L 130.794 110.522 L 130.884 110.460 L 130.960 110.384 L 131.022 110.294 L 131.067 110.196 L 131.077 110.161 L 131.097 110.054 L 131.097 109.946 L 131.086 109.874 L 131.077 109.839 L 131.039 109.738 L 130.983 109.645 L 130.924 109.576 L 123.848 102.500 L 123.815 102.500 L 123.848 102.500 L 128.249 98.100 L 128.246 98.094 L 128.249 98.100 L 128.751 98.100 L 128.754 98.094 L 128.751 98.100 L 130.766 100.114 L 130.825 100.166 L 130.904 100.217 L 130.990 100.255 L 131.112 100.284 L 131.190 100.290 L 131.495 100.290 L 131.516 100.269 L 131.495 100.290 L 131.496 100.398 L 131.506 100.484 L 131.539 100.586 L 131.593 100.679 L 131.650 100.744 L 131.681 100.772 L 131.734 100.810 L 131.770 100.831 L 131.830 100.857 L 131.869 100.870 L 131.933 100.884 L 131.997 100.890 L 133.426 100.888 L 133.541 100.865 L 133.639 100.821 L 133.725 100.758 L 133.784 100.695 L 133.809 100.661 L 133.841 100.605 L 133.858 100.566 L 133.884 100.484 L 133.894 100.398 L 133.895 99.002 L 133.884 98.896 L 133.851 98.794 L 133.797 98.701 L 133.725 98.622 L 133.639 98.559 L 133.541 98.515 L 133.426 98.492 L 133.295 98.490 L 133.272 98.513 L 133.295 98.490 L 133.295 91.590 L 133.259 91.534 L 133.295 91.590 L 134.672 92.202 L 136.544 92.600 L 138.456 92.600 L 140.307 92.208 L 140.347 92.195 L 142.056 91.434 L 142.093 91.413 L 143.623 90.300 L 144.902 88.878 L 145.859 87.222 L 146.450 85.402 L 146.650 83.500 L 146.453 81.618 L 146.445 81.577 L 145.866 79.798 L 145.849 79.760 L 144.902 78.122 L 143.637 76.715 L 143.606 76.687 L 142.075 75.576 L 140.327 74.798 L 138.456 74.400 L 136.544 74.400 L 134.672 74.798 L 132.925 75.576 L 131.377 76.700 L 130.111 78.105 L 130.086 78.139 L 129.151 79.760 L 129.134 79.798 L 128.550 81.598 L 128.351 83.479 L 128.351 83.521 L 128.550 85.402 L 129.134 87.202 L 129.151 87.240 L 130.086 88.861 L 130.111 88.894 L 131.377 90.300 L 132.095 90.822 L 132.104 90.818 L 132.095 90.822 L 132.095 98.491 L 132.118 98.514 L 132.095 98.491 L 131.953 98.493 L 131.869 98.510 L 131.830 98.523 L 131.751 98.559 L 131.665 98.622 L 131.606 98.685 L 131.581 98.719 L 131.539 98.794 L 131.512 98.876 L 131.503 98.917 L 131.496 98.982 L 131.495 99.090 L 131.516 99.112 L 131.495 99.090 L 131.439 99.090 L 131.436 99.096 L 131.439 99.090 L 129.424 97.076 L 129.365 97.024 L 129.286 96.973 L 129.170 96.925 L 129.078 96.906 L 129.000 96.900 L 127.984 96.901 L 127.922 96.906 L 127.830 96.925 L 127.742 96.959 L 127.660 97.006 L 127.576 97.076 L 122.576 102.076 L 122.499 102.171 L 122.450 102.263 L 122.417 102.362 L 122.402 102.465 L 122.402 102.535 L 122.322 102.535 L 122.326 102.583 L 122.350 102.699 L 122.395 102.809 L 122.458 102.909 L 122.519 102.981 L 129.436 109.898 L 129.470 109.898 L 129.436 109.898 L 128.322 111.012 L 128.322 111.044 L 128.322 111.012 L 128.096 110.786 L 128.054 110.751 L 128.005 110.725 L 127.953 110.709 L 127.898 110.704 L 127.843 110.709 L 127.791 110.725 L 127.742 110.751 L 127.700 110.786 L 127.349 111.137 L 127.185 111.356 L 127.000 111.555 L 126.798 111.732 L 126.644 111.842 L 126.286 112.200 L 126.251 112.242 L 126.225 112.291 L 126.209 112.343 L 126.204 112.398 L 126.209 112.453 L 126.225 112.505 L 126.251 112.554 L 126.286 112.596 L 127.700 114.010 L 127.742 114.045 L 127.791 114.071 L 127.843 114.087 L 127.898 114.092 L 127.953 114.087 L 128.005 114.071 L 128.054 114.045 L 128.096 114.010 L 128.322 113.784 L 128.322 113.751 L 128.322 113.784 L 130.019 115.481 L 130.100 115.549 L 130.146 115.579 L 130.215 115.616 L 130.266 115.637 L 130.367 115.667 L 130.500 115.680 L 132.718 115.680 L 132.721 115.674 L 132.718 115.680 L 132.753 115.715 L 132.761 115.712 L 132.753 115.715 L 132.743 115.763 L 132.722 115.971 L 132.722 116.029 L 132.748 116.266 L 132.831 116.521 L 132.948 116.728 L 132.983 116.775 L 133.144 116.951 L 133.320 117.081 L 133.329 117.077 L 133.320 117.081 L 133.321 121.027 L 133.333 121.133 L 133.363 121.234 L 133.383 121.285 L 133.420 121.354 L 133.451 121.400 L 133.501 121.460 L 133.540 121.499 L 133.600 121.549 L 133.646 121.579 L 133.715 121.616 L 133.766 121.637 L 133.867 121.667 L 134.000 121.680 L 147.500 121.680 L 147.633 121.667 L 147.734 121.637 L 147.785 121.616 L 147.854 121.579 L 147.900 121.549 L 147.960 121.499 L 147.999 121.460 L 148.049 121.400 L 148.079 121.354 L 148.116 121.285 L 148.137 121.234 L 148.167 121.133 L 148.180 121.000 L 148.180 115.581 L 148.171 115.577 L 148.180 115.581 L 148.334 115.470 L 148.377 115.430 L 148.535 115.252 L 148.656 115.047 L 148.680 114.993 L 148.752 114.766 L 148.780 114.500 L 148.752 114.234 L 148.669 113.979 L 148.535 113.748 L 148.377 113.570 L 148.334 113.530 L 148.165 113.407 L 148.114 113.378 L 147.896 113.283 L 147.634 113.227 L 147.366 113.227 L 147.104 113.283 L 146.860 113.391 L 146.666 113.530 L 146.623 113.570 L 146.483 113.725 L 146.448 113.772 L 146.331 113.979 L 146.256 114.206 L 146.243 114.263 L 146.220 114.500 L 146.243 114.737 L 146.256 114.794 L 146.331 115.021 L 146.448 115.228 L 146.483 115.275 L 146.644 115.451 L 146.820 115.581 L 146.829 115.577 L 146.820 115.581 L 146.820 120.320 L 146.843 120.343 L 146.820 120.320 L 134.680 120.320 L 134.657 120.343 L 134.680 120.320 L 134.680 117.081 L 134.671 117.077 L 134.680 117.081 L 134.856 116.951 L 135.017 116.775 L 135.051 116.728 L 135.169 116.521 L 135.244 116.294 L 135.257 116.237 L 135.278 116.029 L 135.278 115.971 L 135.257 115.763 L 135.244 115.706 L 135.169 115.479 L 135.051 115.272 L 135.017 115.225 L 134.856 115.049 L 134.665 114.907 L 134.614 114.878 L 134.396 114.783 L 134.134 114.727 L 133.866 114.727 L 133.718 114.757 L 133.716 114.767 L 133.718 114.757 L 133.481 114.519 L 133.400 114.451 L 133.354 114.421 L 133.260 114.372 L 133.133 114.333 L 133.000 114.320 L 130.782 114.320 L 130.779 114.326 L 130.782 114.320 L 129.284 112.822 L 129.252 112.823 L 129.284 112.822 L 129.510 112.596 L 129.545 112.554 L 129.571 112.505 L 129.587 112.453 L 129.592 112.398 L 129.587 112.343 L 129.571 112.291 L 129.545 112.242 L 129.510 112.200 L 129.284 111.974 L 129.252 111.974 L 129.284 111.974 L 130.584 110.673 L 130.583 110.670 L 130.584 110.673 L 130.618 110.670 L 130.717 110.644 L 130.764 110.626 L 130.829 110.594 L 130.873 110.568 L 130.931 110.525 L 130.969 110.491 L 131.019 110.439 L 131.050 110.399 L 131.089 110.338 L 131.113 110.293 L 131.141 110.226 L 131.156 110.178 L 131.171 110.107 L 131.177 110.057 L 131.179 109.984 L 131.176 109.934 L 131.165 109.862 L 131.153 109.813 L 131.129 109.744 L 131.109 109.698 L 131.073 109.635 L 131.044 109.594 L 130.981 109.519 L 123.962 102.500 L 123.928 102.500 L 123.962 102.500 L 128.282 98.180 L 128.279 98.174 L 128.282 98.180 L 128.718 98.180 L 128.721 98.174 L 128.718 98.180 L 130.709 100.171 L 130.773 100.226 L 130.862 100.285 L 130.901 100.305 L 131.001 100.343 L 131.062 100.357 L 131.105 100.364 L 131.190 100.370 L 131.415 100.370 L 131.432 100.352 L 131.415 100.370 L 131.428 100.501 L 131.456 100.591 L 131.480 100.645 L 131.528 100.726 L 131.590 100.797 L 131.634 100.836 L 131.687 100.875 L 131.737 100.904 L 131.797 100.930 L 131.853 100.949 L 131.917 100.962 L 131.993 100.970 L 132.199 100.970 L 132.320 100.948 L 132.590 100.923 L 132.859 100.926 L 133.070 100.948 L 133.191 100.970 L 133.430 100.968 L 133.473 100.962 L 133.566 100.941 L 133.679 100.891 L 133.779 100.818 L 133.843 100.749 L 133.878 100.701 L 133.910 100.645 L 133.934 100.591 L 133.962 100.501 L 133.973 100.407 L 133.975 99.002 L 133.962 98.879 L 133.924 98.761 L 133.878 98.679 L 133.843 98.631 L 133.800 98.583 L 133.756 98.544 L 133.679 98.489 L 133.566 98.439 L 133.473 98.418 L 133.430 98.412 L 133.375 98.410 L 133.356 98.427 L 133.375 98.410 L 133.375 91.713 L 133.339 91.657 L 133.375 91.713 L 134.648 92.278 L 136.535 92.679 L 138.465 92.679 L 140.324 92.286 L 140.380 92.268 L 142.089 91.507 L 142.140 91.477 L 143.676 90.359 L 144.967 88.925 L 145.932 87.254 L 146.528 85.419 L 146.730 83.500 L 146.533 81.610 L 146.521 81.553 L 145.942 79.773 L 145.919 79.720 L 144.967 78.075 L 143.676 76.641 L 142.115 75.507 L 140.352 74.722 L 138.465 74.321 L 136.535 74.321 L 134.648 74.722 L 132.885 75.507 L 131.324 76.641 L 130.051 78.052 L 130.017 78.099 L 129.068 79.746 L 128.479 81.553 L 128.467 81.610 L 128.272 83.471 L 128.272 83.529 L 128.472 85.419 L 129.058 87.227 L 129.081 87.280 L 130.017 88.901 L 130.051 88.948 L 131.324 90.359 L 132.015 90.863 L 132.024 90.859 L 132.015 90.863 L 132.015 98.412 L 132.035 98.428 L 132.015 98.412 L 131.973 98.412 L 131.917 98.418 L 131.824 98.439 L 131.711 98.489 L 131.634 98.544 L 131.590 98.583 L 131.528 98.654 L 131.480 98.735 L 131.456 98.789 L 131.428 98.879 L 131.418 98.957 L 131.441 99.037 L 131.418 98.957 L 129.481 97.019 L 129.417 96.963 L 129.328 96.905 L 129.231 96.861 L 129.189 96.847 L 129.085 96.826 L 129.000 96.820 L 127.978 96.821 L 127.915 96.826 L 127.811 96.847 L 127.711 96.885 L 127.619 96.938 L 127.583 96.963 L 127.519 97.019 L 122.519 102.019 L 122.458 102.091 L 122.430 102.131 L 122.374 102.235 L 122.350 102.301 L 122.326 102.417 L 122.322 102.535" fill="none" stroke="#000000" stroke-width="0.2"/>
  <path d="M 121.526 107.194 L 121.554 107.460 L 121.637 107.715 L 121.770 107.946 L 121.949 108.145 L 122.166 108.303 L 122.410 108.411 L 122.672 108.467 L 122.910 108.469 L 122.969 108.462 L 122.995 108.457 L 122.998 108.450 L 122.995 108.457 L 124.855 110.317 L 124.863 110.314 L 124.855 110.317 L 124.845 110.365 L 124.824 110.573 L 124.824 110.631 L 124.850 110.868 L 124.933 111.123 L 125.050 111.330 L 125.085 111.377 L 125.246 111.553 L 125.437 111.694 L 125.488 111.724 L 125.706 111.819 L 125.968 111.875 L 126.236 111.875 L 126.497 111.819 L 126.599 111.776 L 126.699 111.707 L 126.904 111.536 L 127.087 111.348 L 127.250 111.139 L 127.283 111.092 L 127.354 110.868 L 127.380 110.631 L 127.380 110.573 L 127.354 110.336 L 127.282 110.109 L 127.258 110.055 L 127.137 109.850 L 126.958 109.651 L 126.767 109.509 L 126.716 109.480 L 126.497 109.385 L 126.265 109.334 L 126.206 109.327 L 125.968 109.329 L 125.820 109.359 L 125.817 109.369 L 125.820 109.359 L 124.026 107.564 L 124.013 107.567 L 124.026 107.564 L 124.058 107.460 L 124.086 107.194 L 124.058 106.928 L 123.986 106.701 L 123.962 106.647 L 123.857 106.466 L 123.823 106.419 L 123.662 106.243 L 123.470 106.102 L 123.420 106.072 L 123.229 105.987 L 123.173 105.969 L 122.940 105.921 L 122.672 105.921 L 122.410 105.977 L 122.192 106.072 L 122.141 106.102 L 121.972 106.224 L 121.929 106.264 L 121.770 106.442 L 121.637 106.673 L 121.554 106.928 L 121.527 107.165 L 121.526 107.194 L 121.606 107.194 L 121.629 107.423 L 121.638 107.464 L 121.710 107.682 L 121.824 107.882 L 121.848 107.916 L 121.988 108.071 L 122.019 108.099 L 122.206 108.233 L 122.416 108.328 L 122.455 108.341 L 122.660 108.384 L 122.701 108.389 L 122.931 108.387 L 123.021 108.370 L 123.024 108.359 L 123.021 108.370 L 124.946 110.294 L 124.955 110.291 L 124.946 110.294 L 124.928 110.352 L 124.902 110.602 L 124.925 110.831 L 124.934 110.872 L 125.006 111.090 L 125.120 111.290 L 125.144 111.324 L 125.284 111.479 L 125.315 111.507 L 125.502 111.641 L 125.712 111.736 L 125.751 111.749 L 125.977 111.795 L 126.206 111.796 L 126.248 111.792 L 126.473 111.743 L 126.702 111.641 L 126.905 111.494 L 127.073 111.307 L 127.198 111.090 L 127.276 110.851 L 127.302 110.602 L 127.276 110.352 L 127.198 110.114 L 127.084 109.914 L 127.060 109.880 L 126.920 109.725 L 126.889 109.697 L 126.702 109.563 L 126.473 109.461 L 126.248 109.412 L 126.206 109.407 L 125.977 109.409 L 125.795 109.446 L 125.791 109.457 L 125.795 109.446 L 123.935 107.586 L 123.921 107.589 L 123.935 107.586 L 123.980 107.444 L 124.005 107.215 L 124.005 107.173 L 123.980 106.945 L 123.902 106.706 L 123.788 106.506 L 123.764 106.472 L 123.609 106.302 L 123.406 106.155 L 123.196 106.060 L 123.156 106.047 L 122.952 106.004 L 122.910 106.000 L 122.680 106.001 L 122.435 106.053 L 122.206 106.155 L 122.003 106.302 L 121.835 106.489 L 121.710 106.706 L 121.632 106.945 L 121.607 107.173 L 121.606 107.194 L 121.686 107.194 L 121.714 107.439 L 121.783 107.650 L 121.893 107.842 L 121.908 107.862 L 122.066 108.034 L 122.246 108.164 L 122.460 108.259 L 122.701 108.309 L 122.923 108.308 L 123.047 108.282 L 125.037 110.273 L 125.006 110.369 L 124.982 110.602 L 125.010 110.847 L 125.079 111.058 L 125.189 111.250 L 125.204 111.270 L 125.362 111.442 L 125.542 111.572 L 125.744 111.663 L 125.985 111.716 L 126.231 111.714 L 126.448 111.667 L 126.662 111.572 L 126.851 111.434 L 127.008 111.260 L 127.125 111.058 L 127.197 110.835 L 127.222 110.602 L 127.197 110.369 L 127.125 110.146 L 127.015 109.954 L 126.860 109.779 L 126.842 109.762 L 126.662 109.632 L 126.448 109.537 L 126.206 109.487 L 125.985 109.488 L 125.769 109.533 L 123.843 107.608 L 123.901 107.427 L 123.925 107.207 L 123.901 106.961 L 123.829 106.739 L 123.719 106.546 L 123.555 106.362 L 123.355 106.218 L 123.152 106.129 L 122.923 106.080 L 122.676 106.082 L 122.460 106.129 L 122.257 106.218 L 122.056 106.362 L 121.893 106.546 L 121.783 106.739 L 121.714 106.949 L 121.686 107.194" fill="none" stroke="#000000" stroke-width="0.2"/>
  <path d="M 131.415 107.310 L 131.443 107.576 L 131.515 107.803 L 131.539 107.857 L 131.659 108.062 L 131.818 108.240 L 131.861 108.280 L 132.015 108.391 L 132.024 108.387 L 132.015 108.391 L 132.015 112.695 L 132.021 112.780 L 132.042 112.884 L 132.080 112.984 L 132.133 113.076 L 132.158 113.112 L 132.214 113.176 L 133.040 113.999 L 133.100 114.049 L 133.146 114.079 L 133.215 114.116 L 133.266 114.137 L 133.341 114.160 L 133.394 114.171 L 133.500 114.180 L 135.820 114.180 L 135.843 114.157 L 135.820 114.180 L 135.821 119.027 L 135.833 119.133 L 135.872 119.260 L 135.920 119.354 L 135.951 119.400 L 136.001 119.460 L 136.040 119.499 L 136.100 119.549 L 136.146 119.579 L 136.240 119.628 L 136.367 119.667 L 136.500 119.680 L 143.500 119.680 L 143.633 119.667 L 143.760 119.628 L 143.854 119.579 L 143.900 119.549 L 143.960 119.499 L 143.999 119.460 L 144.049 119.400 L 144.079 119.354 L 144.128 119.260 L 144.167 119.133 L 144.180 119.000 L 144.180 112.680 L 144.157 112.657 L 144.180 112.680 L 157.500 112.680 L 157.605 112.671 L 157.659 112.660 L 157.760 112.628 L 157.854 112.579 L 157.900 112.549 L 157.981 112.481 L 158.049 112.400 L 158.079 112.354 L 158.128 112.260 L 158.160 112.159 L 158.171 112.105 L 158.180 112.000 L 158.180 99.000 L 158.167 98.867 L 158.137 98.766 L 158.116 98.715 L 158.079 98.646 L 158.049 98.600 L 157.999 98.540 L 157.960 98.501 L 157.878 98.435 L 157.785 98.383 L 157.734 98.362 L 157.633 98.333 L 157.527 98.321 L 151.180 98.320 L 151.157 98.343 L 151.180 98.320 L 151.180 94.500 L 151.171 94.394 L 151.160 94.341 L 151.128 94.240 L 151.079 94.146 L 151.049 94.100 L 150.981 94.019 L 150.878 93.935 L 150.785 93.884 L 150.734 93.862 L 150.633 93.833 L 150.500 93.820 L 149.764 93.822 L 149.708 93.785 L 149.611 93.741 L 149.508 93.713 L 149.402 93.701 L 148.642 93.700 L 148.523 93.749 L 148.642 93.700 L 150.441 91.900 L 150.526 91.797 L 150.577 91.705 L 150.598 91.654 L 150.627 91.552 L 150.640 91.420 L 150.640 83.426 L 150.624 83.414 L 150.640 83.426 L 153.575 82.640 L 153.621 82.623 L 153.663 82.599 L 153.701 82.568 L 153.732 82.530 L 153.756 82.488 L 153.773 82.442 L 153.782 82.394 L 153.782 82.345 L 153.773 82.297 L 152.194 76.405 L 152.175 76.354 L 152.146 76.307 L 152.109 76.267 L 152.064 76.235 L 152.014 76.212 L 151.960 76.200 L 151.906 76.198 L 151.851 76.207 L 146.346 77.682 L 146.300 77.699 L 146.258 77.723 L 146.220 77.755 L 146.189 77.792 L 146.164 77.834 L 146.148 77.880 L 146.139 77.928 L 146.139 77.977 L 146.148 78.025 L 147.726 83.917 L 147.746 83.969 L 147.775 84.015 L 147.812 84.055 L 147.857 84.087 L 147.907 84.110 L 147.960 84.123 L 148.015 84.124 L 148.069 84.115 L 149.280 83.791 L 149.312 83.750 L 149.280 83.791 L 149.280 91.138 L 149.287 91.140 L 149.280 91.138 L 147.281 93.137 L 147.285 93.147 L 147.281 93.137 L 147.134 93.107 L 146.895 93.106 L 146.837 93.112 L 146.604 93.163 L 146.360 93.271 L 146.166 93.410 L 146.123 93.450 L 145.964 93.628 L 145.921 93.700 L 145.926 93.709 L 145.921 93.700 L 145.625 93.700 L 145.540 93.706 L 145.497 93.713 L 145.436 93.727 L 145.336 93.765 L 145.244 93.818 L 145.208 93.844 L 145.144 93.899 L 140.596 98.447 L 140.600 98.457 L 140.596 98.447 L 140.449 98.417 L 140.210 98.415 L 140.152 98.422 L 139.948 98.465 L 139.892 98.483 L 139.675 98.582 L 139.459 98.739 L 139.279 98.938 L 139.159 99.143 L 139.135 99.197 L 139.071 99.396 L 139.058 99.453 L 139.035 99.690 L 139.058 99.927 L 139.071 99.984 L 139.146 100.211 L 139.279 100.442 L 139.459 100.641 L 139.650 100.782 L 139.701 100.812 L 139.892 100.897 L 139.972 100.920 L 140.658 100.920 L 140.738 100.897 L 140.929 100.812 L 140.980 100.782 L 141.171 100.641 L 141.332 100.465 L 141.366 100.418 L 141.484 100.211 L 141.567 99.956 L 141.593 99.719 L 141.593 99.661 L 141.572 99.453 L 141.562 99.405 L 141.553 99.402 L 141.562 99.405 L 145.907 95.060 L 145.904 95.054 L 145.907 95.060 L 145.921 95.060 L 145.927 95.050 L 145.921 95.060 L 145.964 95.132 L 146.144 95.331 L 146.360 95.488 L 146.604 95.597 L 146.837 95.648 L 146.895 95.654 L 147.134 95.653 L 147.367 95.605 L 147.423 95.587 L 147.640 95.488 L 147.834 95.350 L 147.877 95.310 L 148.036 95.132 L 148.079 95.060 L 148.073 95.050 L 148.079 95.060 L 149.115 95.060 L 149.116 95.057 L 149.119 95.062 L 149.172 95.095 L 149.269 95.139 L 149.311 95.153 L 149.415 95.174 L 149.500 95.180 L 149.820 95.180 L 149.843 95.158 L 149.820 95.180 L 149.821 99.027 L 149.833 99.133 L 149.862 99.234 L 149.883 99.285 L 149.920 99.354 L 149.951 99.400 L 150.019 99.481 L 150.122 99.565 L 150.215 99.616 L 150.266 99.637 L 150.367 99.667 L 150.500 99.680 L 156.820 99.680 L 156.843 99.657 L 156.820 99.680 L 156.820 111.320 L 156.843 111.343 L 156.820 111.320 L 143.500 111.320 L 143.367 111.333 L 143.266 111.362 L 143.215 111.383 L 143.146 111.420 L 143.100 111.451 L 143.019 111.519 L 142.951 111.600 L 142.920 111.646 L 142.884 111.715 L 142.863 111.766 L 142.833 111.867 L 142.821 111.973 L 142.820 118.320 L 142.843 118.343 L 142.820 118.320 L 137.180 118.320 L 137.157 118.343 L 137.180 118.320 L 137.180 113.500 L 137.167 113.367 L 137.128 113.240 L 137.079 113.146 L 137.049 113.100 L 136.981 113.019 L 136.900 112.951 L 136.854 112.920 L 136.760 112.872 L 136.659 112.840 L 136.605 112.829 L 136.500 112.820 L 133.782 112.820 L 133.779 112.826 L 133.782 112.820 L 133.375 112.413 L 133.369 112.416 L 133.375 112.413 L 133.375 108.391 L 133.366 108.387 L 133.375 108.391 L 133.551 108.261 L 133.712 108.085 L 133.746 108.038 L 133.864 107.831 L 133.939 107.604 L 133.952 107.547 L 133.975 107.310 L 133.947 107.044 L 133.864 106.789 L 133.730 106.558 L 133.551 106.359 L 133.335 106.201 L 133.118 106.103 L 133.038 106.080 L 132.352 106.080 L 132.272 106.103 L 132.081 106.188 L 132.030 106.217 L 131.839 106.359 L 131.659 106.558 L 131.526 106.789 L 131.451 107.016 L 131.438 107.073 L 131.415 107.310 L 131.495 107.310 L 131.518 107.539 L 131.527 107.580 L 131.599 107.798 L 131.724 108.015 L 131.892 108.202 L 132.077 108.338 L 132.095 108.349 L 132.103 108.345 L 132.095 108.349 L 132.095 112.695 L 132.105 112.804 L 132.130 112.895 L 132.168 112.981 L 132.219 113.060 L 132.271 113.119 L 133.076 113.924 L 133.151 113.987 L 133.183 114.009 L 133.253 114.046 L 133.289 114.061 L 133.364 114.084 L 133.402 114.091 L 133.500 114.100 L 135.900 114.100 L 135.923 114.077 L 135.900 114.100 L 135.900 119.000 L 135.909 119.098 L 135.916 119.136 L 135.946 119.230 L 135.991 119.316 L 136.013 119.349 L 136.076 119.424 L 136.151 119.487 L 136.183 119.509 L 136.270 119.554 L 136.364 119.584 L 136.402 119.591 L 136.500 119.600 L 143.500 119.600 L 143.617 119.588 L 143.730 119.554 L 143.816 119.509 L 143.849 119.487 L 143.924 119.424 L 143.987 119.349 L 144.009 119.316 L 144.054 119.230 L 144.088 119.117 L 144.099 119.020 L 144.100 112.600 L 144.077 112.577 L 144.100 112.600 L 157.500 112.600 L 157.598 112.591 L 157.636 112.584 L 157.730 112.554 L 157.816 112.509 L 157.849 112.487 L 157.924 112.424 L 157.987 112.349 L 158.009 112.316 L 158.054 112.230 L 158.084 112.136 L 158.091 112.098 L 158.100 112.000 L 158.100 99.000 L 158.088 98.883 L 158.061 98.789 L 158.046 98.753 L 158.009 98.683 L 157.987 98.651 L 157.937 98.590 L 157.910 98.563 L 157.849 98.513 L 157.816 98.491 L 157.747 98.454 L 157.711 98.439 L 157.636 98.416 L 157.598 98.409 L 157.500 98.400 L 151.100 98.400 L 151.077 98.423 L 151.100 98.400 L 151.100 94.500 L 151.091 94.402 L 151.084 94.364 L 151.054 94.270 L 151.009 94.183 L 150.987 94.151 L 150.924 94.076 L 150.849 94.013 L 150.816 93.991 L 150.747 93.954 L 150.711 93.939 L 150.636 93.916 L 150.598 93.909 L 150.500 93.900 L 149.738 93.902 L 149.720 93.886 L 149.666 93.853 L 149.580 93.815 L 149.489 93.790 L 149.380 93.780 L 148.448 93.780 L 148.329 93.829 L 148.448 93.780 L 150.385 91.844 L 150.448 91.769 L 150.469 91.736 L 150.506 91.667 L 150.521 91.631 L 150.549 91.537 L 150.560 91.420 L 150.560 83.365 L 150.544 83.352 L 150.560 83.365 L 153.554 82.563 L 153.591 82.549 L 153.624 82.528 L 153.653 82.502 L 153.676 82.470 L 153.692 82.434 L 153.701 82.396 L 153.702 82.357 L 153.696 82.318 L 152.117 76.426 L 152.105 76.393 L 152.088 76.363 L 152.065 76.336 L 152.039 76.314 L 152.008 76.296 L 151.976 76.284 L 151.941 76.278 L 151.906 76.278 L 151.872 76.284 L 146.366 77.760 L 146.330 77.773 L 146.296 77.794 L 146.268 77.821 L 146.245 77.853 L 146.229 77.888 L 146.220 77.927 L 146.219 77.966 L 146.225 78.005 L 147.804 83.897 L 147.816 83.929 L 147.833 83.960 L 147.856 83.986 L 147.882 84.009 L 147.912 84.026 L 147.945 84.038 L 147.980 84.044 L 148.014 84.044 L 148.049 84.038 L 149.360 83.687 L 149.392 83.646 L 149.360 83.687 L 149.360 91.171 L 149.367 91.174 L 149.360 91.171 L 147.307 93.224 L 147.310 93.235 L 147.307 93.224 L 147.125 93.187 L 146.895 93.185 L 146.854 93.190 L 146.629 93.239 L 146.400 93.341 L 146.197 93.488 L 146.029 93.675 L 145.968 93.780 L 145.974 93.790 L 145.968 93.780 L 145.625 93.780 L 145.516 93.790 L 145.455 93.805 L 145.367 93.839 L 145.260 93.904 L 145.201 93.956 L 140.622 98.534 L 140.625 98.545 L 140.622 98.534 L 140.461 98.500 L 140.420 98.495 L 140.190 98.497 L 139.964 98.543 L 139.925 98.556 L 139.715 98.651 L 139.512 98.798 L 139.344 98.985 L 139.228 99.183 L 139.211 99.221 L 139.147 99.420 L 139.138 99.461 L 139.115 99.690 L 139.138 99.919 L 139.147 99.960 L 139.219 100.178 L 139.333 100.378 L 139.357 100.412 L 139.512 100.582 L 139.697 100.718 L 139.734 100.739 L 139.925 100.824 L 139.964 100.837 L 140.190 100.883 L 140.440 100.883 L 140.686 100.831 L 140.896 100.739 L 140.933 100.718 L 141.118 100.582 L 141.273 100.412 L 141.297 100.378 L 141.411 100.178 L 141.489 99.939 L 141.514 99.711 L 141.514 99.669 L 141.489 99.440 L 141.471 99.382 L 141.459 99.379 L 141.471 99.382 L 145.874 94.980 L 145.871 94.974 L 145.874 94.980 L 145.968 94.980 L 145.974 94.969 L 145.968 94.980 L 146.029 95.085 L 146.182 95.257 L 146.213 95.285 L 146.382 95.408 L 146.419 95.429 L 146.629 95.521 L 146.854 95.570 L 146.895 95.574 L 147.125 95.573 L 147.351 95.527 L 147.390 95.514 L 147.600 95.419 L 147.787 95.285 L 147.818 95.257 L 147.971 95.085 L 148.032 94.980 L 148.026 94.969 L 148.032 94.980 L 149.142 94.978 L 149.160 94.994 L 149.242 95.041 L 149.330 95.075 L 149.422 95.094 L 149.500 95.100 L 149.900 95.100 L 149.923 95.077 L 149.900 95.100 L 149.901 99.020 L 149.912 99.117 L 149.939 99.211 L 149.954 99.247 L 149.991 99.316 L 150.013 99.349 L 150.076 99.424 L 150.151 99.487 L 150.183 99.509 L 150.253 99.546 L 150.289 99.561 L 150.383 99.588 L 150.500 99.600 L 156.900 99.600 L 156.923 99.577 L 156.900 99.600 L 156.900 111.400 L 156.923 111.423 L 156.900 111.400 L 143.500 111.400 L 143.383 111.412 L 143.289 111.439 L 143.253 111.454 L 143.183 111.491 L 143.151 111.513 L 143.076 111.576 L 143.013 111.651 L 142.991 111.683 L 142.954 111.753 L 142.939 111.789 L 142.912 111.883 L 142.901 111.980 L 142.900 118.400 L 142.923 118.423 L 142.900 118.400 L 137.100 118.400 L 137.077 118.423 L 137.100 118.400 L 137.100 113.500 L 137.088 113.383 L 137.054 113.270 L 137.009 113.183 L 136.987 113.151 L 136.924 113.076 L 136.849 113.013 L 136.816 112.991 L 136.730 112.946 L 136.636 112.916 L 136.598 112.909 L 136.500 112.900 L 133.749 112.900 L 133.746 112.906 L 133.749 112.900 L 133.295 112.446 L 133.289 112.449 L 133.295 112.446 L 133.295 108.349 L 133.286 108.345 L 133.295 108.349 L 133.313 108.338 L 133.482 108.215 L 133.513 108.187 L 133.666 108.015 L 133.791 107.798 L 133.863 107.580 L 133.872 107.539 L 133.895 107.310 L 133.872 107.081 L 133.863 107.040 L 133.791 106.822 L 133.677 106.622 L 133.653 106.588 L 133.513 106.433 L 133.482 106.405 L 133.295 106.271 L 133.066 106.169 L 132.820 106.117 L 132.570 106.117 L 132.324 106.169 L 132.114 106.261 L 132.077 106.282 L 131.908 106.405 L 131.877 106.433 L 131.724 106.605 L 131.599 106.822 L 131.521 107.060 L 131.496 107.289 L 131.495 107.310 L 131.575 107.310 L 131.603 107.555 L 131.672 107.766 L 131.789 107.968 L 131.946 108.142 L 132.124 108.273 L 132.175 108.298 L 132.175 112.695 L 132.183 112.786 L 132.204 112.865 L 132.236 112.939 L 132.280 113.008 L 132.327 113.063 L 133.132 113.868 L 133.221 113.938 L 133.312 113.984 L 133.410 114.012 L 133.500 114.020 L 135.980 114.020 L 135.980 119.000 L 135.993 119.113 L 136.020 119.199 L 136.062 119.279 L 136.132 119.368 L 136.221 119.438 L 136.301 119.480 L 136.387 119.507 L 136.500 119.520 L 143.500 119.520 L 143.601 119.510 L 143.699 119.480 L 143.798 119.425 L 143.868 119.368 L 143.925 119.298 L 143.980 119.199 L 144.010 119.101 L 144.019 119.012 L 144.020 112.520 L 157.500 112.520 L 157.613 112.507 L 157.699 112.480 L 157.779 112.438 L 157.868 112.368 L 157.938 112.279 L 157.980 112.199 L 158.007 112.113 L 158.020 112.000 L 158.020 99.000 L 158.010 98.899 L 157.975 98.790 L 157.925 98.702 L 157.876 98.641 L 157.789 98.568 L 157.688 98.516 L 157.601 98.490 L 157.500 98.480 L 151.020 98.480 L 151.020 94.500 L 151.007 94.387 L 150.980 94.301 L 150.938 94.221 L 150.868 94.132 L 150.789 94.068 L 150.688 94.016 L 150.590 93.988 L 150.500 93.980 L 149.710 93.980 L 149.678 93.954 L 149.624 93.921 L 149.550 93.889 L 149.471 93.868 L 149.389 93.860 L 148.255 93.860 L 150.328 91.787 L 150.399 91.698 L 150.445 91.607 L 150.470 91.521 L 150.480 91.420 L 150.480 83.304 L 153.534 82.486 L 153.556 82.477 L 153.593 82.449 L 153.616 82.408 L 153.622 82.385 L 153.619 82.339 L 152.040 76.446 L 152.032 76.424 L 152.003 76.387 L 151.984 76.374 L 151.940 76.359 L 151.893 76.362 L 146.387 77.837 L 146.365 77.845 L 146.328 77.874 L 146.314 77.893 L 146.299 77.937 L 146.302 77.984 L 147.888 83.896 L 147.912 83.930 L 147.946 83.954 L 147.986 83.964 L 148.028 83.961 L 149.440 83.582 L 149.440 91.204 L 147.333 93.311 L 147.117 93.266 L 146.895 93.265 L 146.654 93.315 L 146.440 93.410 L 146.251 93.548 L 146.094 93.722 L 146.014 93.860 L 145.625 93.860 L 145.553 93.865 L 145.455 93.889 L 145.381 93.921 L 145.312 93.965 L 145.257 94.012 L 140.648 98.621 L 140.432 98.576 L 140.210 98.575 L 139.981 98.622 L 139.755 98.720 L 139.566 98.858 L 139.409 99.032 L 139.287 99.246 L 139.219 99.457 L 139.196 99.677 L 139.218 99.910 L 139.292 100.146 L 139.417 100.358 L 139.566 100.522 L 139.744 100.653 L 139.969 100.755 L 140.198 100.804 L 140.444 100.802 L 140.673 100.751 L 140.875 100.660 L 141.055 100.530 L 141.073 100.513 L 141.228 100.338 L 141.338 100.146 L 141.407 99.935 L 141.435 99.690 L 141.411 99.457 L 141.380 99.361 L 145.840 94.900 L 146.014 94.900 L 146.094 95.038 L 146.242 95.203 L 146.440 95.350 L 146.654 95.445 L 146.895 95.495 L 147.117 95.494 L 147.334 95.448 L 147.560 95.350 L 147.758 95.203 L 147.906 95.038 L 147.986 94.900 L 149.170 94.900 L 149.202 94.926 L 149.272 94.967 L 149.348 94.997 L 149.428 95.015 L 149.500 95.020 L 149.980 95.020 L 149.981 99.012 L 149.990 99.101 L 150.016 99.188 L 150.075 99.298 L 150.132 99.368 L 150.202 99.425 L 150.290 99.475 L 150.399 99.510 L 150.500 99.520 L 156.980 99.520 L 156.980 111.480 L 143.500 111.480 L 143.399 111.490 L 143.312 111.516 L 143.202 111.575 L 143.132 111.632 L 143.075 111.702 L 143.016 111.812 L 142.990 111.899 L 142.980 112.000 L 142.980 118.480 L 137.020 118.480 L 137.020 113.500 L 137.010 113.399 L 136.975 113.290 L 136.925 113.202 L 136.868 113.132 L 136.798 113.075 L 136.688 113.016 L 136.601 112.990 L 136.512 112.981 L 133.715 112.980 L 133.215 112.480 L 133.215 108.298 L 133.266 108.273 L 133.453 108.133 L 133.601 107.968 L 133.718 107.766 L 133.791 107.543 L 133.814 107.323 L 133.814 107.297 L 133.787 107.065 L 133.718 106.854 L 133.601 106.652 L 133.444 106.478 L 133.266 106.347 L 133.244 106.334 L 133.029 106.242 L 132.812 106.196 L 132.578 106.196 L 132.349 106.245 L 132.146 106.334 L 131.955 106.470 L 131.937 106.487 L 131.789 106.652 L 131.672 106.854 L 131.599 107.077 L 131.575 107.310" fill="none" stroke="#000000" stroke-width="0.2"/>
  <path d="M 137.880 116.000 L 137.904 115.767 L 137.972 115.556 L 138.094 115.342 L 138.260 115.160 L 138.440 115.030 L 138.654 114.935 L 138.895 114.885 L 139.117 114.886 L 139.334 114.932 L 139.549 115.024 L 139.571 115.037 L 139.749 115.168 L 139.913 115.352 L 139.980 115.285 L 139.980 108.378 L 139.766 108.286 L 139.744 108.273 L 139.566 108.142 L 139.409 107.968 L 139.292 107.766 L 139.223 107.555 L 139.195 107.310 L 139.219 107.077 L 139.292 106.854 L 139.409 106.652 L 139.557 106.487 L 139.575 106.470 L 139.766 106.334 L 139.969 106.245 L 140.198 106.196 L 140.432 106.196 L 140.661 106.245 L 140.875 106.340 L 141.064 106.478 L 141.221 106.652 L 141.338 106.854 L 141.411 107.077 L 141.434 107.297 L 141.411 107.543 L 141.338 107.766 L 141.221 107.968 L 141.073 108.133 L 141.020 108.175 L 141.020 115.500 L 141.010 115.601 L 140.975 115.710 L 140.925 115.798 L 140.876 115.859 L 140.368 116.368 L 140.298 116.425 L 140.199 116.480 L 140.113 116.507 L 139.986 116.520 L 139.906 116.658 L 139.758 116.823 L 139.560 116.970 L 139.346 117.065 L 139.117 117.114 L 138.883 117.114 L 138.654 117.065 L 138.440 116.970 L 138.251 116.832 L 138.094 116.658 L 137.977 116.456 L 137.904 116.233 L 137.880 116.000 L 137.800 116.000 L 137.826 115.750 L 137.896 115.531 L 137.913 115.493 L 138.029 115.295 L 138.182 115.123 L 138.213 115.095 L 138.400 114.961 L 138.629 114.859 L 138.854 114.810 L 138.895 114.805 L 139.125 114.807 L 139.371 114.859 L 139.600 114.961 L 139.803 115.108 L 139.900 115.214 L 139.942 115.323 L 139.900 115.214 L 139.900 108.433 L 139.913 108.425 L 139.900 108.433 L 139.734 108.359 L 139.697 108.338 L 139.512 108.202 L 139.344 108.015 L 139.219 107.798 L 139.147 107.580 L 139.138 107.539 L 139.115 107.310 L 139.141 107.060 L 139.211 106.841 L 139.228 106.803 L 139.333 106.622 L 139.357 106.588 L 139.512 106.418 L 139.715 106.271 L 139.944 106.169 L 140.190 106.117 L 140.440 106.117 L 140.686 106.169 L 140.915 106.271 L 141.118 106.418 L 141.286 106.605 L 141.411 106.822 L 141.489 107.060 L 141.514 107.289 L 141.514 107.331 L 141.489 107.559 L 141.411 107.798 L 141.286 108.015 L 141.133 108.187 L 141.100 108.216 L 141.094 108.214 L 141.100 108.216 L 141.100 115.500 L 141.091 115.598 L 141.084 115.636 L 141.054 115.730 L 141.009 115.816 L 140.987 115.849 L 140.937 115.910 L 140.424 116.424 L 140.349 116.487 L 140.316 116.509 L 140.247 116.546 L 140.211 116.561 L 140.117 116.588 L 140.033 116.598 L 140.029 116.592 L 140.033 116.598 L 139.971 116.705 L 139.818 116.877 L 139.787 116.905 L 139.600 117.039 L 139.371 117.141 L 139.125 117.193 L 138.875 117.193 L 138.629 117.141 L 138.400 117.039 L 138.197 116.892 L 138.029 116.705 L 137.904 116.488 L 137.826 116.249 L 137.800 116.000 L 137.720 116.000 L 137.748 115.734 L 137.820 115.507 L 137.844 115.453 L 137.964 115.248 L 138.123 115.070 L 138.166 115.030 L 138.360 114.891 L 138.577 114.793 L 138.633 114.775 L 138.837 114.732 L 138.895 114.725 L 139.134 114.727 L 139.367 114.775 L 139.423 114.793 L 139.614 114.878 L 139.665 114.907 L 139.820 115.020 L 139.863 115.105 L 139.820 115.020 L 139.820 108.485 L 139.833 108.477 L 139.820 108.485 L 139.675 108.418 L 139.481 108.280 L 139.438 108.240 L 139.279 108.062 L 139.146 107.831 L 139.071 107.604 L 139.058 107.547 L 139.037 107.339 L 139.037 107.281 L 139.058 107.073 L 139.071 107.016 L 139.146 106.789 L 139.263 106.582 L 139.298 106.535 L 139.459 106.359 L 139.650 106.217 L 139.701 106.188 L 139.892 106.103 L 139.972 106.080 L 140.658 106.080 L 140.711 106.093 L 140.955 106.201 L 141.149 106.340 L 141.192 106.380 L 141.350 106.558 L 141.484 106.789 L 141.559 107.016 L 141.572 107.073 L 141.595 107.310 L 141.567 107.576 L 141.484 107.831 L 141.350 108.062 L 141.192 108.240 L 141.180 108.253 L 141.175 108.251 L 141.180 108.253 L 141.180 115.500 L 141.171 115.605 L 141.160 115.659 L 141.137 115.734 L 141.116 115.785 L 141.079 115.854 L 141.049 115.900 L 140.999 115.960 L 140.481 116.481 L 140.400 116.549 L 140.354 116.579 L 140.260 116.628 L 140.133 116.667 L 140.083 116.673 L 140.079 116.668 L 140.083 116.673 L 140.036 116.752 L 139.877 116.930 L 139.834 116.970 L 139.640 117.108 L 139.396 117.217 L 139.134 117.273 L 138.866 117.273 L 138.604 117.217 L 138.360 117.108 L 138.144 116.951 L 137.964 116.752 L 137.831 116.521 L 137.748 116.266 L 137.720 116.000" fill="none" stroke="#000000" stroke-width="0.2"/>
</svg>
