<?xml version="1.0" encoding="UTF-8"?>
<svg xmlns="http://www.w3.org/2000/svg" width="95.97mm" height="94.71mm" viewBox="92.58 49.46 95.97 94.71">
  <path d="M 97.584 79.641 L 97.588 79.234 L 97.602 78.774 L 97.626 78.319 L 97.660 77.869 L 97.705 77.398 L 97.753 76.983 L 97.818 76.507 L 97.892 76.036 L 97.968 75.604 L 98.063 75.128 L 98.166 74.656 L 98.272 74.210 L 98.395 73.734 L 98.521 73.285 L 98.664 72.805 L 98.808 72.354 L 98.972 71.871 L 99.132 71.424 L 99.303 70.972 L 99.481 70.525 L 99.668 70.078 L 99.863 69.632 L 100.064 69.193 L 100.298 68.704 L 100.542 68.217 L 100.775 67.770 L 101.010 67.338 L 101.261 66.894 L 101.520 66.450 L 101.789 66.008 L 102.055 65.584 L 102.343 65.143 L 102.621 64.730 L 102.894 64.340 L 103.191 63.929 L 103.487 63.536 L 103.782 63.156 L 104.092 62.771 L 104.395 62.408 L 104.701 62.054 L 105.032 61.685 L 105.340 61.352 L 105.663 61.018 L 105.994 60.686 L 106.339 60.353 L 106.667 60.049 L 107.014 59.738 L 107.358 59.442 L 107.703 59.157 L 108.051 58.880 L 108.412 58.605 L 108.772 58.343 L 109.113 58.104 L 109.489 57.851 L 109.846 57.622 L 110.234 57.383 L 110.624 57.155 L 111.002 56.943 L 111.398 56.732 L 111.783 56.537 L 112.166 56.352 L 112.581 56.162 L 112.999 55.982 L 113.410 55.815 L 113.907 55.627 L 114.397 55.455 L 114.888 55.298 L 115.419 55.143 L 115.910 55.014 L 116.411 54.897 L 116.912 54.794 L 117.403 54.706 L 117.891 54.633 L 118.418 54.569 L 118.913 54.522 L 119.406 54.490 L 119.886 54.473 L 120.392 54.468 L 120.895 54.479 L 121.377 54.503 L 121.880 54.543 L 122.387 54.599 L 122.881 54.668 L 123.355 54.748 L 123.851 54.847 L 124.337 54.957 L 124.824 55.082 L 125.312 55.222 L 125.800 55.376 L 126.278 55.541 L 126.777 55.728 L 127.265 55.926 L 127.743 56.134 L 128.201 56.348 L 128.686 56.589 L 129.161 56.839 L 129.651 57.114 L 130.121 57.393 L 130.605 57.697 L 131.077 58.009 L 131.545 58.336 L 131.973 58.649 L 132.431 59.002 L 132.884 59.367 L 133.323 59.738 L 133.762 60.128 L 134.160 60.497 L 134.587 60.911 L 134.986 61.315 L 135.403 61.755 L 135.804 62.199 L 136.177 62.631 L 136.560 63.093 L 136.915 63.541 L 137.250 63.983 L 137.614 64.484 L 137.956 64.979 L 138.284 65.476 L 138.580 65.947 L 138.887 66.457 L 139.189 66.987 L 139.464 67.495 L 139.721 67.995 L 139.939 68.441 L 139.988 68.541 L 140.223 69.050 L 140.455 69.585 L 140.565 69.854 L 140.809 69.277 L 141.019 68.809 L 141.068 68.704 L 141.238 68.344 L 141.453 67.910 L 141.693 67.446 L 141.924 67.019 L 142.143 66.631 L 142.348 66.281 L 142.576 65.905 L 142.804 65.541 L 143.048 65.167 L 143.281 64.822 L 143.526 64.470 L 143.769 64.132 L 144.053 63.750 L 144.311 63.416 L 144.570 63.091 L 144.872 62.724 L 145.176 62.368 L 145.481 62.023 L 145.801 61.673 L 146.090 61.368 L 146.415 61.035 L 146.713 60.741 L 147.039 60.428 L 147.367 60.125 L 147.709 59.820 L 148.011 59.559 L 148.362 59.268 L 148.705 58.993 L 149.057 58.721 L 149.418 58.452 L 149.777 58.196 L 150.138 57.948 L 150.501 57.708 L 150.860 57.480 L 151.228 57.257 L 151.603 57.038 L 151.967 56.835 L 152.345 56.634 L 152.711 56.449 L 153.092 56.265 L 153.459 56.096 L 153.842 55.930 L 154.217 55.776 L 154.631 55.616 L 155.043 55.467 L 155.411 55.343 L 155.795 55.222 L 156.199 55.105 L 156.583 55.003 L 156.957 54.911 L 157.332 54.828 L 157.733 54.749 L 158.115 54.682 L 158.524 54.620 L 158.896 54.573 L 159.293 54.531 L 159.665 54.501 L 160.053 54.478 L 160.434 54.465 L 160.827 54.460 L 161.344 54.467 L 161.854 54.489 L 162.374 54.527 L 162.908 54.582 L 163.436 54.652 L 163.962 54.738 L 164.482 54.837 L 165.003 54.952 L 165.524 55.083 L 166.055 55.232 L 166.565 55.390 L 167.094 55.570 L 167.601 55.758 L 168.088 55.954 L 168.591 56.170 L 169.100 56.406 L 169.587 56.646 L 170.079 56.905 L 170.556 57.172 L 171.046 57.463 L 171.503 57.750 L 171.980 58.067 L 172.431 58.383 L 172.875 58.711 L 173.301 59.043 L 173.728 59.392 L 174.161 59.765 L 174.590 60.152 L 175.006 60.546 L 175.424 60.960 L 175.827 61.378 L 176.228 61.813 L 176.629 62.269 L 177.038 62.757 L 177.417 63.229 L 177.799 63.727 L 178.169 64.231 L 178.542 64.763 L 178.903 65.302 L 179.252 65.848 L 179.602 66.420 L 179.939 66.999 L 180.242 67.542 L 180.545 68.114 L 180.838 68.697 L 181.109 69.267 L 181.374 69.854 L 181.620 70.435 L 181.852 71.015 L 182.066 71.587 L 182.271 72.175 L 182.458 72.753 L 182.630 73.329 L 182.798 73.947 L 182.939 74.517 L 183.065 75.084 L 183.177 75.648 L 183.272 76.198 L 183.361 76.806 L 183.427 77.357 L 183.479 77.903 L 183.520 78.486 L 183.543 79.052 L 183.551 79.633 L 183.547 80.038 L 183.533 80.470 L 183.512 80.876 L 183.482 81.271 L 183.446 81.654 L 183.400 82.051 L 183.347 82.436 L 183.282 82.847 L 183.213 83.226 L 183.134 83.609 L 183.052 83.973 L 182.955 84.359 L 182.851 84.741 L 182.734 85.134 L 182.610 85.521 L 182.588 85.586 L 182.480 85.899 L 182.333 86.298 L 182.173 86.707 L 182.017 87.084 L 181.844 87.478 L 181.665 87.867 L 181.518 88.171 L 181.488 88.232 L 181.285 88.633 L 181.079 89.023 L 180.869 89.403 L 180.646 89.792 L 180.407 90.192 L 180.175 90.566 L 179.914 90.973 L 179.647 91.374 L 179.388 91.753 L 179.105 92.152 L 178.644 92.779 L 178.170 93.396 L 177.674 94.016 L 177.177 94.614 L 176.626 95.253 L 176.074 95.872 L 175.504 96.492 L 174.898 97.132 L 174.278 97.769 L 173.615 98.434 L 172.904 99.132 L 172.155 99.853 L 170.864 101.072 L 168.431 103.338 L 167.114 104.572 L 165.968 105.657 L 164.831 106.744 L 163.880 107.665 L 162.989 108.538 L 162.147 109.373 L 161.348 110.178 L 160.289 111.263 L 159.289 112.309 L 158.341 113.323 L 157.438 114.311 L 156.576 115.277 L 155.727 116.252 L 154.856 117.280 L 154.026 118.286 L 153.546 118.880 L 153.041 119.514 L 152.597 120.080 L 152.130 120.686 L 151.640 121.332 L 151.181 121.945 L 150.728 122.562 L 150.278 123.182 L 149.834 123.806 L 149.394 124.433 L 148.958 125.064 L 148.553 125.660 L 148.127 126.297 L 147.706 126.937 L 147.265 127.619 L 146.494 128.838 L 146.069 129.529 L 145.649 130.223 L 145.280 130.842 L 144.916 131.464 L 144.511 132.167 L 144.157 132.794 L 143.763 133.502 L 143.375 134.214 L 143.036 134.848 L 142.659 135.565 L 142.329 136.204 L 141.963 136.925 L 141.643 137.569 L 141.328 138.214 L 141.233 138.412 L 140.978 138.944 L 140.940 139.008 L 140.890 139.064 L 140.830 139.110 L 140.764 139.143 L 140.692 139.164 L 140.617 139.171 L 140.518 139.171 L 140.444 139.164 L 140.372 139.143 L 140.305 139.110 L 140.246 139.064 L 140.196 139.008 L 140.158 138.944 L 139.808 138.215 L 139.630 137.852 L 139.414 137.409 L 139.012 136.606 L 138.602 135.807 L 138.186 135.010 L 137.805 134.297 L 137.374 133.507 L 136.937 132.721 L 136.582 132.095 L 136.223 131.471 L 135.536 130.307 L 135.164 129.690 L 134.787 129.076 L 134.406 128.464 L 133.630 127.248 L 132.837 126.044 L 132.384 125.371 L 131.950 124.739 L 131.513 124.110 L 131.070 123.484 L 130.649 122.899 L 130.197 122.280 L 129.768 121.701 L 129.335 121.124 L 128.870 120.516 L 128.429 119.946 L 127.955 119.344 L 127.505 118.781 L 127.024 118.187 L 126.191 117.182 L 125.406 116.256 L 124.499 115.216 L 123.635 114.249 L 122.730 113.260 L 121.779 112.245 L 120.776 111.197 L 119.712 110.109 L 118.743 109.136 L 117.711 108.117 L 116.696 107.128 L 115.595 106.071 L 114.494 105.026 L 113.385 103.982 L 109.898 100.729 L 109.217 100.086 L 108.576 99.472 L 107.936 98.851 L 107.344 98.266 L 106.755 97.673 L 106.245 97.148 L 105.635 96.503 L 105.033 95.849 L 104.473 95.219 L 103.965 94.629 L 103.458 94.019 L 102.971 93.412 L 102.523 92.829 L 102.076 92.225 L 101.778 91.805 L 101.514 91.421 L 101.253 91.030 L 100.997 90.632 L 100.767 90.263 L 100.527 89.862 L 100.290 89.453 L 100.072 89.059 L 99.858 88.656 L 99.661 88.268 L 99.612 88.167 L 99.468 87.870 L 99.292 87.488 L 99.119 87.094 L 98.952 86.690 L 98.803 86.308 L 98.666 85.935 L 98.544 85.582 L 98.532 85.549 L 98.413 85.180 L 98.296 84.787 L 98.193 84.414 L 98.095 84.026 L 98.007 83.646 L 97.930 83.271 L 97.855 82.864 L 97.794 82.482 L 97.739 82.089 L 97.689 81.662 L 97.653 81.279 L 97.621 80.845 L 97.601 80.447 L 97.588 80.038 L 97.584 79.641" fill="none" stroke="#000000" stroke-width="0.2"/>
</svg>
