<?xml version="1.0" encoding="UTF-8"?>
<svg xmlns="http://www.w3.org/2000/svg" width="41.19mm" height="31.62mm" viewBox="117.81 89.38 41.19 31.62">
  <circle cx="122.806" cy="107.194" r="0.400" fill="none" stroke="#000000" stroke-width="0.1"/>
  <circle cx="128.194" cy="101.806" r="0.400" fill="none" stroke="#000000" stroke-width="0.1"/>
  <circle cx="132.695" cy="99.690" r="0.400" fill="none" stroke="#000000" stroke-width="0.1"/>
  <circle cx="132.695" cy="102.230" r="0.400" fill="none" stroke="#000000" stroke-width="0.1"/>
  <circle cx="132.695" cy="104.770" r="0.400" fill="none" stroke="#000000" stroke-width="0.1"/>
  <circle cx="132.695" cy="107.310" r="0.400" fill="none" stroke="#000000" stroke-width="0.1"/>
  <circle cx="140.315" cy="102.230" r="0.400" fill="none" stroke="#000000" stroke-width="0.1"/>
  <circle cx="140.315" cy="104.770" r="0.400" fill="none" stroke="#000000" stroke-width="0.1"/>
  <circle cx="140.315" cy="107.310" r="0.400" fill="none" stroke="#000000" stroke-width="0.1"/>
  <circle cx="147.000" cy="102.000" r="0.400" fill="none" stroke="#000000" stroke-width="0.1"/>
  <circle cx="140.315" cy="99.690" r="0.400" fill="none" stroke="#000000" stroke-width="0.1"/>
  <circle cx="147.000" cy="94.380" r="0.400" fill="none" stroke="#000000" stroke-width="0.1"/>
  <circle cx="154.000" cy="102.000" r="0.400" fill="none" stroke="#000000" stroke-width="0.1"/>
  <circle cx="154.000" cy="109.620" r="0.400" fill="none" stroke="#000000" stroke-width="0.1"/>
  <circle cx="147.500" cy="114.500" r="0.400" fill="none" stroke="#000000" stroke-width="0.1"/>
  <circle cx="147.500" cy="109.500" r="0.400" fill="none" stroke="#000000" stroke-width="0.1"/>
  <circle cx="139.000" cy="116.000" r="0.400" fill="none" stroke="#000000" stroke-width="0.1"/>
  <circle cx="134.000" cy="116.000" r="0.400" fill="none" stroke="#000000" stroke-width="0.1"/>
  <circle cx="126.102" cy="110.602" r="0.450" fill="none" stroke="#000000" stroke-width="0.1"/>
  <circle cx="127.898" cy="112.398" r="0.450" fill="none" stroke="#000000" stroke-width="0.1"/>
</svg>
